<svg width="100" height="100" fill="none" xmlns="http://www.w3.org/2000/svg"><circle cx="50" cy="50" r="50" fill="#BFBFBF" fill-opacity=".749"/><path d="M50 18.42c-17.413 0-31.58 14.166-31.58 31.58 0 17.412 14.167 31.58 31.58 31.58 17.412 0 31.58-14.168 31.58-31.58 0-17.413-14.168-31.58-31.58-31.58Zm0 59.27C34.73 77.69 22.31 65.27 22.31 50c0-15.269 12.421-27.69 27.69-27.69 15.269 0 27.69 12.421 27.69 27.69 0 15.269-12.421 27.69-27.69 27.69Z" fill="#000"/><path d="M56.461 26.413a.977.977 0 0 0-1.194.681.974.974 0 0 0 .681 1.195C65.698 30.954 72.505 39.882 72.505 50a.973.973 0 0 0 1.944 0c0-10.992-7.395-20.69-17.988-23.587ZM50 27.494c.422 0 .84.012 1.257.034.02.002.036.002.055.002a.973.973 0 0 0 .052-1.943 25.338 25.338 0 0 0-1.362-.037.972.972 0 0 0-.001 1.944ZM58.411 41.58l-10.264 6.3c-.078.044-.135.1-.206.15v-4.351c0-1.478-1.395-2.55-2.848-2.55-.525 0-1.4.148-1.916.448L33.085 47.88c-.92.532-1.448 1.326-1.448 2.176 0 .817.494 1.57 1.33 2.05l10.287 6.337c.488.28 1.02.43 1.538.43.671 0 1.631-.248 2.083-.699.47-.465 1.066-1.123 1.066-1.853v-4.335c.055.036.098.08.156.114l10.019 6.342c.496.285.993.43 1.48.43.662 0 1.59-.27 2.002-.763.385-.458.925-1.076.925-1.789V43.68c0-2.056-2.147-3.237-4.112-2.1ZM45.996 56.32c0 .148-.362.35-.489.475-.109.11-.6.133-.71.133-.177 0-.368-.06-.537-.156l-10.276-6.337c-.28-.16-.36-.316-.36-.382 0-.082.172-.29.548-.508l10.175-6.303c.193-.11.562-.17.746-.17.257 0 .902.104.903.606V56.32Zm14.582 0c0 .239-.385.442-.468.54-.026.031-.4.067-.507.067a.98.98 0 0 1-.47-.149l-10.006-6.344c-.308-.176-.399-.351-.399-.425 0-.08.16-.263.512-.467l10.01-6.3c.257-.149.6-.17.682-.17.257 0 .648.328.647.606l-.001 12.641Z" fill="#000"/></svg>