<svg width="40" height="40" fill="none" xmlns="http://www.w3.org/2000/svg"><g clip-path="url('#clip0_51_20')"><path fill-rule="evenodd" clip-rule="evenodd" d="M21.365 40H2.208A2.208 2.208 0 0 1 0 37.792V2.208C0 .988.988 0 2.208 0h35.584C39.012 0 40 .988 40 2.208v35.584c0 1.22-.989 2.208-2.208 2.208H27.6V24.51h5.2l.778-6.037H27.6v-3.854c0-1.748.486-2.939 2.992-2.939l3.197-.001v-5.4c-.553-.073-2.45-.238-4.658-.238-4.61 0-7.765 2.814-7.765 7.98v4.452h-5.212v6.037h5.212V40Z" fill="#4460A0"/></g><defs><clipPath id="clip0_51_20"><path fill="#fff" d="M0 0h40v40H0z"/></clipPath></defs></svg>