<svg width="100" height="100" fill="none" xmlns="http://www.w3.org/2000/svg"><circle cx="50" cy="50" r="50" fill="#BFBFBF" fill-opacity=".749"/><path d="M50 18.42c-17.414 0-31.58 14.166-31.58 31.58 0 17.412 14.166 31.58 31.58 31.58 17.412 0 31.58-14.168 31.58-31.58 0-17.413-14.168-31.58-31.58-31.58Zm0 59.27C34.73 77.69 22.309 65.27 22.309 50c0-15.269 12.422-27.69 27.69-27.69C65.27 22.31 77.69 34.73 77.69 50c0 15.269-12.422 27.69-27.69 27.69Z" fill="#000"/><path d="M56.462 26.413a.98.98 0 0 0-1.195.681.974.974 0 0 0 .681 1.195C65.698 30.954 72.505 39.882 72.505 50a.971.971 0 1 0 1.945 0c0-10.992-7.396-20.69-17.988-23.587ZM50 27.494c.421 0 .84.012 1.256.034.02.002.036.002.056.002a.973.973 0 0 0 .051-1.943 25.342 25.342 0 0 0-1.362-.037.972.972 0 0 0 0 1.944ZM66.694 47.895l-10.157-6.337c-.486-.28-.868-.43-1.418-.43-1.516 0-2.325 1.097-2.325 2.55v5.49a2.69 2.69 0 0 0-1.156-1.271l-10.004-6.34c-.487-.28-.846-.43-1.353-.43-1.395 0-2.07 1.072-2.07 2.55V56.32c0 1.48.665 2.552 2.046 2.552.503 0 .869-.15 1.384-.449l9.963-6.303c.57-.328.969-.773 1.191-1.266v5.466c0 1.455.785 2.552 2.267 2.552.542 0 .927-.15 1.434-.44L66.75 52.12c.846-.488 1.352-1.23 1.354-2.037-.002-.858-.498-1.661-1.409-2.188ZM50.67 50.453l-10.037 6.305c-.244.14-.263.171-.375.171-.11 0-.102 0-.102-.608V43.68c0-.403-.18-.606.126-.606.167 0 .2.058.36.15l9.93 6.34c.338.195.48.39.48.473 0 .07-.062.232-.382.417Zm15.151-.007-10.326 6.312c-.191.112-.231.171-.432.171-.198 0-.323-.061-.323-.608V43.68c0-.562.213-.606.38-.606.209 0 .263.058.43.154l10.083 6.336c.367.211.524.43.524.519 0 .059-.053.202-.336.364Z" fill="#000"/></svg>