<svg width="134" height="26" fill="none" xmlns="http://www.w3.org/2000/svg"><path d="m13 0 4.042 7.436 8.322 1.547-5.824 6.142 1.101 8.392L13 19.877l-7.641 3.64 1.1-8.392L.637 8.983l8.322-1.547L13 0ZM40 0l4.042 7.436 8.322 1.547-5.824 6.142 1.101 8.392L40 19.877l-7.641 3.64 1.1-8.392-5.823-6.142 8.322-1.547L40 0ZM67 0l4.042 7.436 8.322 1.547-5.824 6.142 1.101 8.392L67 19.877l-7.641 3.64 1.1-8.392-5.823-6.142 8.322-1.547L67 0ZM94 0l4.042 7.436 8.322 1.547-5.824 6.142 1.101 8.392L94 19.877l-7.641 3.64 1.1-8.392-5.823-6.142 8.322-1.547L94 0Z" fill="#FFF847"/><path d="m121 0 4.042 7.436 8.322 1.547-5.824 6.142 1.101 8.392-7.641-3.64-7.641 3.64 1.101-8.392-5.824-6.142 8.322-1.547L121 0Z" fill="url('#paint0_linear_55_10')"/><defs><linearGradient id="paint0_linear_55_10" x1="112.136" y1="13" x2="129.273" y2="13" gradientUnits="userSpaceOnUse"><stop offset=".244" stop-color="#FFF847"/><stop offset="1" stop-color="#FDFDFD"/></linearGradient></defs></svg>