<svg width="1653" height="757" fill="none" xmlns="http://www.w3.org/2000/svg"><path d="m1380.81 175.078 13.78-54.14c14.86.629 25.83 8.17 33.47 21.656l-47.25 32.484Z" stroke="#000" stroke-opacity=".5" stroke-width="3" stroke-linejoin="round"/><path d="M1393.22 126.332a58.44 58.44 0 0 1 30.27 19.402M1398.53 138.656a2.95 2.95 0 0 0 2.95-2.953 2.95 2.95 0 1 0-5.9 0 2.95 2.95 0 0 0 2.95 2.953ZM1396.56 155.391c2.18 0 3.94-1.763 3.94-3.938a3.936 3.936 0 0 0-3.94-3.937 3.943 3.943 0 0 0-3.94 3.937 3.943 3.943 0 0 0 3.94 3.938ZM1406.41 146.531c1.08 0 1.97-.881 1.97-1.969 0-1.087-.89-1.968-1.97-1.968a1.968 1.968 0 1 0 0 3.937ZM178.812 637.078l13.782-54.14c14.854.629 25.83 8.17 33.468 21.656l-47.25 32.484Z" stroke="#000" stroke-opacity=".5" stroke-width="3" stroke-linejoin="round"/><path d="M191.216 588.332a58.393 58.393 0 0 1 30.269 19.402M196.531 600.656a2.953 2.953 0 1 0 0-5.906 2.953 2.953 0 0 0 0 5.906ZM194.562 617.391a3.938 3.938 0 1 0 0-7.876 3.938 3.938 0 0 0 0 7.876ZM204.406 608.531a1.968 1.968 0 1 0 .001-3.937 1.968 1.968 0 0 0-.001 3.937Z" stroke="#000" stroke-opacity=".5" stroke-width="3" stroke-linejoin="round"/><path d="M320.368 317.382a15.752 15.752 0 0 1-15.435-18.818 15.755 15.755 0 0 1 4.305-8.062l20.632-20.632a15.747 15.747 0 0 1 17.155-3.408A15.745 15.745 0 0 1 356.75 281a15.596 15.596 0 0 1-4.594 11.104 2.624 2.624 0 0 1-3.701 0 2.626 2.626 0 0 1-.761-1.838 2.621 2.621 0 0 1 .735-1.837 10.51 10.51 0 0 0 0-14.858 10.507 10.507 0 0 0-14.858 0l-20.632 20.554a10.561 10.561 0 1 0 14.936 14.936l9.503-9.502a2.622 2.622 0 0 1 3.428.291 2.628 2.628 0 0 1 .194 3.436l-9.502 9.476a15.747 15.747 0 0 1-11.13 4.62Z" fill="#333" fill-opacity=".5"/><path d="M307.243 317.382a2.616 2.616 0 0 1-2.439-1.615 2.631 2.631 0 0 1 0-2.019c.133-.32.329-.61.575-.854l3.412-3.413a2.634 2.634 0 0 1 3.728 0 2.634 2.634 0 0 1 0 3.728l-3.413 3.412a2.616 2.616 0 0 1-1.863.761ZM350.713 273.913a2.625 2.625 0 0 1-1.838-.788 2.617 2.617 0 0 1-.776-1.864 2.611 2.611 0 0 1 .776-1.863l3.413-3.413a2.635 2.635 0 1 1 3.727 3.728l-3.439 3.412a2.638 2.638 0 0 1-1.863.788ZM323.938 298.509a7.876 7.876 0 0 1-5.565-2.31l-5.592-5.592a2.626 2.626 0 0 1 3.702-3.701l5.591 5.591a2.631 2.631 0 0 0 2.873.575c.32-.133.61-.328.854-.575l5.697-5.696a2.617 2.617 0 0 0 .776-1.864 2.63 2.63 0 0 0-.776-1.863l-5.592-5.592a2.626 2.626 0 0 1 3.702-3.701l5.591 5.591a7.876 7.876 0 0 1 0 11.13l-5.696 5.697a7.88 7.88 0 0 1-5.565 2.31Z" fill="#333" fill-opacity=".5"/><path d="M7.875 195.692v-.036a17.715 17.715 0 0 1 10.915-16.36 17.724 17.724 0 0 1 10.224-1.026 17.723 17.723 0 0 1 9.073 4.822 11.812 11.812 0 0 1 16.873 12.58 3.938 3.938 0 0 1 3.52 4.568c-1.78 10.706-6.182 17.482-13.199 20.333v2.646a5.907 5.907 0 0 1-5.906 5.906h-15.75a5.905 5.905 0 0 1-5.906-5.906v-2.646C10.702 217.722 6.3 210.946 4.52 200.24a3.941 3.941 0 0 1 1.878-4.03 3.93 3.93 0 0 1 1.477-.514v-.004Zm3.938-.036h3.937a9.843 9.843 0 0 1 19.688 0h3.937a13.783 13.783 0 0 0-23.526-9.745 13.783 13.783 0 0 0-4.037 9.745Zm7.874 0H31.5a5.907 5.907 0 0 0-11.813 0Zm27.035 0h4.217a7.888 7.888 0 0 0-4.163-9.034 7.878 7.878 0 0 0-3.464-.809c-.944 0-1.842.165-2.677.468a17.979 17.979 0 0 1 1.713 3.587 3.944 3.944 0 0 1 4.374 5.788Zm-5.378 25.594H21.656v1.969a1.968 1.968 0 0 0 1.969 1.969h15.75a1.97 1.97 0 0 0 1.969-1.969v-1.969Zm-21.074-3.937h22.46c6.245-2.009 10.198-7.686 11.867-17.719H8.403c1.67 10.033 5.622 15.71 11.867 17.719ZM1597.87 308.692v-.036c0-3.5 1.04-6.922 2.98-9.833a17.777 17.777 0 0 1 7.94-6.527 17.714 17.714 0 0 1 10.22-1.026c3.44.676 6.6 2.354 9.08 4.822a11.795 11.795 0 0 1 6.3-1.171c2.17.198 4.24.992 5.99 2.293a11.854 11.854 0 0 1 3.9 5.083c.81 2.022 1.05 4.228.68 6.375.54.05 1.06.211 1.53.472a3.92 3.92 0 0 1 1.92 2.491c.14.524.16 1.071.07 1.605-1.78 10.706-6.18 17.482-13.2 20.333v2.646c0 1.566-.62 3.068-1.73 4.176a5.911 5.911 0 0 1-4.18 1.73h-15.75a5.905 5.905 0 0 1-5.9-5.906v-2.646c-7.02-2.851-11.42-9.627-13.2-20.333a3.75 3.75 0 0 1 .06-1.564c.12-.512.34-.994.66-1.417.31-.424.7-.781 1.16-1.049.45-.269.95-.443 1.47-.514v-.004Zm3.94-.036h3.94c0-2.61 1.04-5.114 2.88-6.96a9.85 9.85 0 0 1 6.96-2.883c2.61 0 5.12 1.037 6.96 2.883a9.834 9.834 0 0 1 2.89 6.96h3.93c0-3.655-1.45-7.16-4.03-9.745a13.796 13.796 0 0 0-9.75-4.036c-3.65 0-7.16 1.452-9.74 4.036a13.763 13.763 0 0 0-4.04 9.745Zm7.88 0h11.81c0-1.566-.62-3.068-1.73-4.176a5.911 5.911 0 0 0-4.18-1.73c-1.56 0-3.07.622-4.17 1.73a5.897 5.897 0 0 0-1.73 4.176Zm27.03 0h4.22a7.905 7.905 0 0 0-1.41-6.786 7.895 7.895 0 0 0-2.75-2.248 7.873 7.873 0 0 0-6.15-.341c.7 1.118 1.28 2.323 1.72 3.587a3.919 3.919 0 0 1 2.26.11c.73.258 1.37.724 1.83 1.341.47.616.75 1.356.79 2.127.05.771-.12 1.54-.51 2.21Zm-5.38 25.594h-19.68v1.969a1.959 1.959 0 0 0 1.96 1.969h15.75a1.959 1.959 0 0 0 1.97-1.969v-1.969Zm-21.07-3.937h22.46c6.24-2.009 10.2-7.686 11.87-17.719h-46.2c1.67 10.033 5.63 15.71 11.87 17.719Z" fill="#000" fill-opacity=".5"/><path d="M48.963 492.753c2.166-1.968 3.544-4.134 4.134-6.103l6.89-3.937c1.182.59 2.56.59 3.742 0 1.771-.985 2.559-3.347 1.378-5.119a4.599 4.599 0 0 0-1.378-1.378c0-.591-.197-1.378-.394-1.969-.985-1.772-3.347-2.362-5.119-1.378-1.181.788-1.969 1.969-1.969 3.347l-6.89 3.937c-2.953-.787-7.285-.196-11.222 2.166-2.953 1.772-5.316 3.938-6.497 6.3" stroke="#000" stroke-opacity=".5" stroke-width="5" stroke-miterlimit="10" stroke-linecap="round" stroke-linejoin="round"/><path d="M53.69 486.257c.394 1.181.59 2.559.59 3.74 0 9.056-8.859 11.222-19.687 11.222-10.828 0-19.687-2.166-19.687-11.222s8.86-16.34 19.687-16.34c6.3 0 11.813 2.362 15.356 6.103" stroke="#000" stroke-opacity=".5" stroke-width="5" stroke-miterlimit="10" stroke-linecap="round" stroke-linejoin="round"/><path d="M55.657 476.413c.394-.985.197-1.969-.393-2.953a4.587 4.587 0 0 0-1.379-1.378c0-.591-.197-1.379-.393-1.969-.985-1.772-3.347-2.363-5.12-1.378-1.18.787-1.968 1.968-1.968 3.347l-4.528 2.559M1625.96 603.753c2.17-1.968 3.55-4.134 4.14-6.103l6.89-3.937c1.18.59 2.56.59 3.74 0 1.77-.985 2.56-3.347 1.38-5.119-.4-.591-.79-.984-1.38-1.378 0-.591-.2-1.378-.4-1.969-.98-1.772-3.34-2.362-5.11-1.378-1.19.788-1.97 1.969-1.97 3.347l-6.89 3.937c-2.96-.787-7.29-.196-11.23 2.166-2.95 1.772-5.31 3.938-6.49 6.3" stroke="#000" stroke-opacity=".5" stroke-width="5" stroke-miterlimit="10" stroke-linecap="round" stroke-linejoin="round"/><path d="M1630.69 597.257c.39 1.181.59 2.559.59 3.74 0 9.056-8.86 11.222-19.69 11.222-10.82 0-19.68-2.166-19.68-11.222s8.86-16.34 19.68-16.34c6.3 0 11.82 2.362 15.36 6.103" stroke="#000" stroke-opacity=".5" stroke-width="5" stroke-miterlimit="10" stroke-linecap="round" stroke-linejoin="round"/><path d="M1632.66 587.413c.39-.985.19-1.969-.4-2.953a4.525 4.525 0 0 0-1.37-1.378c0-.591-.2-1.379-.4-1.969-.98-1.772-3.35-2.363-5.12-1.378-1.18.787-1.97 1.968-1.97 3.347l-4.52 2.559" stroke="#000" stroke-opacity=".5" stroke-width="5" stroke-miterlimit="10" stroke-linecap="round" stroke-linejoin="round"/><path d="M175.375 314.781v35.438c0 4.331-3.544 7.875-7.875 7.875-4.331 0-7.875-3.544-7.875-7.875v-35.438c0-4.331 3.544-7.875 7.875-7.875 4.331 0 7.875 3.544 7.875 7.875Z" stroke="#000" stroke-opacity=".5" stroke-width="3" stroke-miterlimit="10" stroke-linecap="round" stroke-linejoin="round"/><path d="M159.822 352.187h-2.362c-4.135 0-7.679-3.543-7.679-7.678v-24.018c0-4.135 3.544-7.679 7.679-7.679h2.362M175.178 312.812h2.363c4.134 0 7.678 3.544 7.678 7.679v23.821c0 4.332-3.544 7.679-7.678 7.679h-2.363M169.469 350.219l-1.969-2.954a5.365 5.365 0 0 1 0-5.906 5.365 5.365 0 0 0 0-5.906 5.365 5.365 0 0 1 0-5.906 5.367 5.367 0 0 0 0-5.907 5.365 5.365 0 0 1 0-5.906l1.969-2.953M1125.38 34.781v35.438c0 4.33-3.55 7.875-7.88 7.875s-7.87-3.544-7.87-7.875V34.78c0-4.331 3.54-7.875 7.87-7.875s7.88 3.544 7.88 7.875Z" stroke="#000" stroke-opacity=".5" stroke-width="3" stroke-miterlimit="10" stroke-linecap="round" stroke-linejoin="round"/><path d="M1109.82 72.187h-2.36c-4.13 0-7.68-3.543-7.68-7.678V40.49c0-4.134 3.55-7.678 7.68-7.678h2.36M1125.18 32.812h2.36c4.14 0 7.68 3.544 7.68 7.678v23.822c0 4.332-3.54 7.678-7.68 7.678h-2.36M1119.47 70.219l-1.97-2.954a5.37 5.37 0 0 1 0-5.906 5.37 5.37 0 0 0 0-5.906 5.37 5.37 0 0 1 0-5.906 5.37 5.37 0 0 0 0-5.907 5.37 5.37 0 0 1 0-5.906l1.97-2.953M1390.66 381.718v3.938M1410.34 381.718v3.938M1400.5 379.749v3.938M1423.73 391.562c-1.77-11.222-11.62-19.687-23.23-19.687-11.62 0-21.46 8.465-23.23 19.687h46.46ZM1376.88 395.5l2.95 1.969a5.372 5.372 0 0 0 5.91 0 5.352 5.352 0 0 1 5.9 0 5.372 5.372 0 0 0 5.91 0 5.352 5.352 0 0 1 5.9 0 5.372 5.372 0 0 0 5.91 0 5.368 5.368 0 0 1 5.91 0 5.355 5.355 0 0 0 5.9 0l2.96-1.969M1422.16 411.25h-43.32c-2.16 0-3.93-1.772-3.93-3.938 0-2.165 1.77-3.937 3.93-3.937h43.32c2.16 0 3.93 1.772 3.93 3.937 0 2.166-1.77 3.938-3.93 3.938ZM1422.15 411.25v2.757c0 2.953-2.36 5.118-5.11 5.118h-33.08c-2.76 0-5.12-2.362-5.12-5.118v-2.757M527.657 36.718v3.938M547.345 36.718v3.938M537.499 34.75v3.937M560.731 46.562c-1.772-11.222-11.616-19.687-23.232-19.687-11.615 0-21.459 8.465-23.231 19.687h46.463ZM513.876 50.5l2.953 1.969a5.365 5.365 0 0 0 5.906 0 5.366 5.366 0 0 1 5.907 0 5.365 5.365 0 0 0 5.906 0 5.364 5.364 0 0 1 5.906 0 5.365 5.365 0 0 0 5.906 0 5.366 5.366 0 0 1 5.907 0 5.365 5.365 0 0 0 5.906 0l2.953-1.97M559.156 66.25h-43.313a3.949 3.949 0 0 1-3.937-3.938 3.95 3.95 0 0 1 3.937-3.937h43.313a3.95 3.95 0 0 1 3.937 3.937 3.949 3.949 0 0 1-3.937 3.938ZM559.154 66.25v2.757c0 2.953-2.363 5.118-5.119 5.118H520.96c-2.756 0-5.119-2.362-5.119-5.118V66.25" stroke="#000" stroke-opacity=".5" stroke-width="3" stroke-miterlimit="10" stroke-linecap="round" stroke-linejoin="round"/><path d="M1434.8 682.579c-5.12-5.119-5.12-13.191 0-18.31l21.85 21.853 7.29 7.285 11.22 11.222c1.97 1.968 1.97 4.921 0 6.89-1.97 1.969-5.52 1.969-7.29-.394l-8.07-10.04c-1.97-2.56-5.51-3.347-8.66-2.166l-16.34-16.34ZM1463.93 679.822l10.63-10.631M1459.61 689.075c.78-.197 1.37-.197 2.16-.394 2.56-.197 5.51-1.575 8.47-4.528l9.64-9.647" stroke="#000" stroke-opacity=".5" stroke-width="5" stroke-miterlimit="10" stroke-linecap="round" stroke-linejoin="round"/><path d="m1446.22 693.996-13.79 11.222c-2.16 1.575-2.36 4.725-.39 6.497 1.97 1.969 4.92 1.575 6.5-.394l11.22-13.978M1469.25 663.875l-9.84 9.647c-2.96 2.953-4.53 5.906-4.53 8.465 0 .788-.2 1.378-.4 2.166M22.798 720.579c-5.119-5.119-5.119-13.191 0-18.31l21.853 21.853 7.284 7.285 11.222 11.222c1.97 1.968 1.97 4.921 0 6.89-1.968 1.969-5.512 1.969-7.284-.394l-8.072-10.04c-1.969-2.56-5.512-3.347-8.662-2.166l-16.341-16.34ZM51.933 717.822l10.631-10.631M47.605 727.075c.788-.197 1.378-.197 2.166-.394 2.56-.197 5.512-1.575 8.465-4.528l9.647-9.647" stroke="#000" stroke-opacity=".5" stroke-width="5" stroke-miterlimit="10" stroke-linecap="round" stroke-linejoin="round"/><path d="m34.215 731.996-13.78 11.222c-2.166 1.575-2.363 4.725-.395 6.497 1.97 1.969 4.922 1.575 6.497-.394l11.222-13.978M57.25 701.875l-9.844 9.647c-2.953 2.953-4.528 5.906-4.528 8.465 0 .788-.197 1.378-.394 2.166" stroke="#000" stroke-opacity=".5" stroke-width="5" stroke-miterlimit="10" stroke-linecap="round" stroke-linejoin="round"/><path d="M1617.83 49.219h-34.65l-4.14-7.875h42.92l-4.13 7.875ZM1574.91 41.344h51.18M1578.85 40.359c0-12.6 9.64-22.64 21.65-22.64 12.01 0 21.66 10.04 21.66 22.64M1600.5 17.719c2.18 0 3.94-1.763 3.94-3.938a3.936 3.936 0 0 0-3.94-3.937 3.943 3.943 0 0 0-3.94 3.937 3.943 3.943 0 0 0 3.94 3.938Z" stroke="#000" stroke-opacity=".5" stroke-width="3" stroke-miterlimit="10" stroke-linecap="round" stroke-linejoin="round"/></svg>