<svg width="50" height="50" fill="none" xmlns="http://www.w3.org/2000/svg"><g clip-path="url('#clip0_18_49')"><path d="M25 50c13.807 0 25-11.193 25-25S38.807 0 25 0 0 11.193 0 25s11.193 25 25 25Z" fill="#D97077"/><path d="M48.722 32.907 39.095 25h-12.5L14.098 37.5 27.15 49.906c10.096-.86 18.48-7.72 21.571-17Z" fill="#D97077"/><path d="M48.722 32.907 39.095 25h-12.5L14.098 37.5 27.15 49.906c10.096-.86 18.48-7.72 21.571-17Z" fill="#CA6168"/><path d="M39.095 25 14.097 37.5l8.59-12.5-8.59-12.5L39.095 25Z" fill="#fff"/></g><defs><clipPath id="clip0_18_49"><path fill="#fff" d="M0 0h50v50H0z"/></clipPath></defs></svg>