<svg width="20" height="20" fill="none" xmlns="http://www.w3.org/2000/svg"><path d="M10 1.935A.968.968 0 1 0 10 0H6.129A6.129 6.129 0 0 0 0 6.129v7.742A6.129 6.129 0 0 0 6.129 20h7.742A6.129 6.129 0 0 0 20 13.871V10a.968.968 0 0 0-1.936 0v3.871a4.194 4.194 0 0 1-4.193 4.193H6.129a4.194 4.194 0 0 1-4.194-4.193V6.129A4.194 4.194 0 0 1 6.13 1.935H10ZM19.672.241a.962.962 0 0 0-.64-.241h-5.275a.968.968 0 0 0 0 1.935h2.939l-7.38 7.38a.968.968 0 1 0 1.368 1.37l7.38-7.381v3.007a.968.968 0 0 0 1.936 0V.968a.964.964 0 0 0-.328-.727Z" fill="#000"/><path d="M10 1.935A.968.968 0 1 0 10 0H6.129A6.129 6.129 0 0 0 0 6.129v7.742A6.129 6.129 0 0 0 6.129 20h7.742A6.129 6.129 0 0 0 20 13.871V10a.968.968 0 0 0-1.936 0v3.871a4.194 4.194 0 0 1-4.193 4.193H6.129a4.194 4.194 0 0 1-4.194-4.193V6.129A4.194 4.194 0 0 1 6.13 1.935H10ZM19.672.241a.962.962 0 0 0-.64-.241h-5.275a.968.968 0 0 0 0 1.935h2.939l-7.38 7.38a.968.968 0 1 0 1.368 1.37l7.38-7.381v3.007a.968.968 0 0 0 1.936 0V.968a.964.964 0 0 0-.328-.727Z" stroke="#000"/></svg>