<svg width="40" height="40" fill="none" xmlns="http://www.w3.org/2000/svg"><path d="M34.083 34.083h-5.926V24.8c0-2.213-.04-5.063-3.084-5.063-3.086 0-3.56 2.413-3.56 4.9v9.446h-5.926v-19.09h5.69v2.61h.08a6.25 6.25 0 0 1 5.613-3.083c6.007 0 7.117 3.95 7.117 9.093l-.004 10.467v.003ZM8.9 12.383a3.457 3.457 0 0 1-3.44-3.436 3.457 3.457 0 0 1 3.44-3.44c1.887 0 3.437 1.553 3.44 3.44a3.454 3.454 0 0 1-3.44 3.436Zm2.963 21.7H5.93v-19.09h5.933v19.09ZM37.033 0H2.95A2.933 2.933 0 0 0 0 2.887v34.226A2.933 2.933 0 0 0 2.95 40h34.087A2.94 2.94 0 0 0 40 37.113V2.883a2.933 2.933 0 0 0-2.963-2.88L37.033 0Z" fill="#0A66C2"/></svg>